<svg id="Capa_1" enable-background="new 0 0 512 512" height="512" viewBox="0 0 512 512" width="512" xmlns="http://www.w3.org/2000/svg"><g><path d="m244.555 388.125 262.446-262.446c6.665-6.665 6.665-17.471 0-24.136s-17.471-6.665-24.136 0l-61.18 61.18c-6.665 6.665-17.471 6.665-24.136 0s-6.665-17.471 0-24.136l109.452-109.452c6.665-6.665 6.665-17.471 0-24.136s-17.471-6.665-24.136 0l-165.426 165.427c-6.665 6.665-17.471 6.665-24.136 0s-6.665-17.471 0-24.136l18.102-18.102c6.665-6.665 6.665-17.471 0-24.136s-17.471-6.665-24.136 0l-163.301 163.301z" fill="#ffb52d"/><g><g><path d="m237.562 354.572c-1.977 0-3.955-.754-5.463-2.262-3.018-3.018-3.018-7.91 0-10.928l95.237-95.237c3.017-3.016 7.91-3.016 10.927 0 3.018 3.018 3.018 7.909 0 10.927l-95.238 95.238c-1.508 1.508-3.485 2.262-5.463 2.262z" fill="#ff8c08"/></g></g><g><g><path d="m366.933 225.201c-1.977 0-3.955-.755-5.463-2.263-3.018-3.018-3.018-7.909 0-10.927l25.6-25.6c3.018-3.017 7.91-3.015 10.927 0 3.018 3.018 3.018 7.909 0 10.927l-25.6 25.6c-1.509 1.509-3.487 2.263-5.464 2.263z" fill="#ff8c08"/></g></g><g><g><path d="m165.154 282.165c-1.977 0-3.955-.755-5.463-2.263-3.018-3.018-3.018-7.909 0-10.928l39.645-39.646c3.017-3.016 7.91-3.016 10.927 0 3.018 3.018 3.018 7.909 0 10.928l-39.645 39.646c-1.509 1.508-3.486 2.263-5.464 2.263z" fill="#ff8c08"/></g></g><g><g><path d="m238.933 208.385c-1.977 0-3.955-.755-5.463-2.263-3.018-3.018-3.018-7.909 0-10.927l17.066-17.065c3.017-3.016 7.91-3.017 10.927.001 3.018 3.017 3.018 7.908 0 10.926l-17.066 17.065c-1.509 1.509-3.487 2.263-5.464 2.263z" fill="#ff8c08"/></g></g><g><g><g><path d="m483.307 4.999c6.665 6.665 6.665 17.471 0 24.136l-109.452 109.451c-6.665 6.665-6.665 17.471 0 24.136 6.594 6.594 17.235 6.653 23.915.2-.072-.07-.15-.129-.221-.2-6.665-6.665-6.665-17.471 0-24.136l109.452-109.451c6.665-6.665 6.665-17.471 0-24.136-6.594-6.594-17.235-6.653-23.915-.199.072.069.15.128.221.199z" fill="#ff8c08"/></g><g><path d="m483.086 101.343c.072.07.15.129.221.2 6.665 6.665 6.665 17.471 0 24.136l-250.59 250.59 11.838 11.856 262.446-262.446c6.665-6.665 6.665-17.471 0-24.136-6.594-6.594-17.235-6.653-23.915-.2z" fill="#ff8c08"/></g><g><path d="m287.711 104.052c6.665 6.665 6.665 17.471 0 24.136l-18.102 18.102c-6.665 6.665-6.665 17.471 0 24.136 6.594 6.594 17.235 6.653 23.915.2-.072-.07-.15-.129-.221-.2-6.665-6.665-6.665-17.471 0-24.136l18.102-18.102c6.665-6.665 6.665-17.471 0-24.136-6.594-6.594-17.235-6.653-23.915-.2.072.07.15.129.221.2z" fill="#ff8c08"/></g></g></g><circle cx="347.609" cy="67.848" fill="#72d1fb" r="17.067"/><circle cx="102.4" cy="170.667" fill="#72d1fb" r="17.067"/><circle cx="34.133" cy="102.4" fill="#5766ce" r="17.067"/><circle cx="477.867" cy="307.2" fill="#5766ce" r="17.067"/><path d="m156.651 51.472c-1.682-.304-3.02-1.642-3.323-3.324-1.439-7.97-8.411-14.015-16.795-14.015s-15.356 6.046-16.795 14.015c-.303 1.682-1.642 3.02-3.324 3.324-7.97 1.438-14.015 8.411-14.015 16.795s6.046 15.356 14.015 16.795c1.682.304 3.02 1.642 3.324 3.324 1.439 7.97 8.411 14.015 16.795 14.015s15.356-6.046 16.795-14.015c.303-1.682 1.642-3.02 3.323-3.324 7.97-1.438 14.015-8.411 14.015-16.795.001-8.385-6.045-15.357-14.015-16.795z" fill="#fff36c"/><path d="m355.348 460.528c1.682.303 3.02 1.642 3.324 3.323 1.438 7.97 8.411 14.015 16.795 14.015s15.356-6.046 16.795-14.015c.303-1.682 1.642-3.02 3.323-3.323 7.97-1.439 14.015-8.411 14.015-16.795s-6.046-15.356-14.015-16.795c-1.682-.303-3.02-1.642-3.323-3.323-1.439-7.97-8.411-14.015-16.795-14.015s-15.356 6.046-16.795 14.015c-.304 1.682-1.642 3.02-3.324 3.323-7.97 1.439-14.015 8.411-14.015 16.795s6.046 15.357 14.015 16.795z" fill="#fff36c"/><path d="m359.676 55.78c-6.594-6.594-17.235-6.653-23.915-.2.072.069.15.129.221.2 6.665 6.665 6.665 17.471 0 24.136-.071.071-.149.13-.221.2 6.68 6.453 17.321 6.394 23.915-.2 6.665-6.665 6.665-17.471 0-24.136z" fill="#5fb2fb"/><path d="m114.468 158.599c-6.594-6.594-17.235-6.653-23.915-.2.072.07.15.129.221.2 6.665 6.665 6.665 17.471 0 24.136-.071.071-.149.13-.221.199 6.68 6.454 17.321 6.394 23.915-.199 6.665-6.665 6.665-17.471 0-24.136z" fill="#5fb2fb"/><path d="m46.201 90.332c-6.594-6.594-17.235-6.653-23.915-.2.072.069.15.129.221.2 6.665 6.665 6.665 17.471 0 24.136-.071.071-.149.13-.221.2 6.68 6.453 17.321 6.394 23.915-.2 6.665-6.665 6.665-17.471 0-24.136z" fill="#4c54c7"/><path d="m489.934 295.132c-6.594-6.594-17.235-6.653-23.915-.2.072.07.15.129.221.2 6.665 6.665 6.665 17.471 0 24.136-.071.071-.149.13-.221.199 6.68 6.453 17.321 6.394 23.915-.199 6.665-6.665 6.665-17.471 0-24.136z" fill="#4c54c7"/><path d="m156.651 51.472c-1.682-.303-3.02-1.642-3.323-3.323-1.439-7.97-8.411-14.015-16.795-14.015-4.605 0-8.777 1.831-11.847 4.796 2.519 2.433 4.299 5.627 4.947 9.219.304 1.682 1.642 3.02 3.324 3.323 7.97 1.439 14.015 8.411 14.015 16.795s-6.045 15.356-14.015 16.794c-1.682.304-3.02 1.642-3.324 3.324-.648 3.592-2.428 6.786-4.947 9.219 3.07 2.965 7.242 4.796 11.847 4.796 8.384 0 15.356-6.045 16.795-14.015.303-1.682 1.642-3.02 3.323-3.324 7.97-1.438 14.015-8.41 14.015-16.794.001-8.385-6.045-15.357-14.015-16.795z" fill="#ffe047"/><path d="m395.585 426.939c-1.682-.303-3.02-1.642-3.323-3.323-1.439-7.97-8.411-14.015-16.795-14.015-4.605 0-8.777 1.831-11.847 4.796 2.52 2.433 4.299 5.627 4.948 9.219.303 1.682 1.642 3.02 3.324 3.323 7.97 1.439 14.015 8.411 14.015 16.795s-6.046 15.356-14.015 16.795c-1.682.303-3.02 1.642-3.324 3.323-.648 3.592-2.428 6.786-4.948 9.219 3.07 2.965 7.242 4.796 11.847 4.796 8.384 0 15.356-6.046 16.795-14.015.303-1.682 1.642-3.02 3.323-3.323 7.97-1.439 14.015-8.411 14.015-16.795 0-8.385-6.046-15.357-14.015-16.795z" fill="#ffe047"/><path d="m259.443 342.613-38.561-38.561c-5.964-5.964-13.903-9.478-22.27-9.936l.172-.093-25.87-25.87c-6.401-6.401-15.083-9.997-24.136-9.997h-29.992c-18.105 0-35.469 7.192-48.272 19.995l-15.482 15.482c-4.485 4.485-8.323 9.574-11.404 15.119l-19.275 34.695c-3.7 6.661-2.537 14.968 2.851 20.356l2.965 2.965-23.811 33.336c-4.135 5.789-6.358 12.725-6.358 19.84v11.127c0 9.053 3.596 17.735 9.997 24.136l43.992 43.992c5.481 5.481 12.663 8.933 20.366 9.789l23.362 2.596c12.455 1.384 25.051-.687 36.408-5.987l47.723-22.271c16.913-7.893 33.065-17.323 48.252-28.171 12.567-8.976 21.718-21.948 25.961-36.797l12.066-42.231c3.406-11.92.081-24.748-8.684-33.514z" fill="#607882"/><g><path d="m138.782 470.716c-9.627 0-19.254-3.664-26.582-10.993-14.658-14.658-14.658-38.508 0-53.164 3.017-3.017 7.909-3.017 10.926 0 3.018 3.017 3.018 7.909 0 10.926-8.632 8.632-8.632 22.679 0 31.311 8.633 8.632 22.679 8.633 31.311 0 3.017-3.017 7.91-3.017 10.927 0 3.018 3.017 3.018 7.91 0 10.927-7.329 7.329-16.956 10.993-26.582 10.993z" fill="#495959"/></g><g><path d="m96.544 361.378c-6.349 0-12.698-2.416-17.531-7.249-9.667-9.668-9.667-25.396 0-35.063 3.017-3.017 7.91-3.017 10.927 0 3.018 3.017 3.018 7.91 0 10.927-3.642 3.642-3.642 9.568 0 13.21 3.642 3.641 9.567 3.642 13.209-.001 3.017-3.016 7.909-3.017 10.927.001 3.017 3.018 3.017 7.909-.001 10.927-4.834 4.832-11.182 7.248-17.531 7.248z" fill="#495959"/></g><g><path d="m211.189 403.616c-6.349 0-12.698-2.417-17.531-7.25-9.667-9.667-9.667-25.396 0-35.062 3.017-3.017 7.91-3.017 10.927 0 3.018 3.017 3.018 7.909 0 10.927-3.642 3.642-3.642 9.567 0 13.209s9.567 3.642 13.209 0c3.017-3.017 7.909-3.017 10.926 0 3.018 3.017 3.018 7.909 0 10.927-4.833 4.833-11.182 7.249-17.531 7.249z" fill="#495959"/></g><path d="m259.443 342.613-38.561-38.561c-5.964-5.964-13.903-9.478-22.27-9.936l.172-.093-25.87-25.87c-6.401-6.401-15.083-9.997-24.136-9.997h-23.694c9.053 0 17.735 3.596 24.136 9.997l25.87 25.87-.172.093c8.367.458 16.306 3.973 22.27 9.936l38.561 38.561c8.765 8.765 12.089 21.594 8.684 33.513l-12.066 42.231c-4.243 14.849-13.394 27.821-25.961 36.797-15.187 10.848-31.339 20.278-48.252 28.171l-47.723 22.271c-5.597 2.612-11.495 4.436-17.529 5.452l4.815.535c12.455 1.384 25.051-.687 36.408-5.987l47.723-22.271c16.913-7.893 33.065-17.323 48.252-28.171 12.567-8.976 21.718-21.948 25.961-36.797l12.066-42.231c3.406-11.919.081-24.747-8.684-33.513z" fill="#526b75"/><g><path d="m45.78 382.377-15.61-15.61-9.105 12.748 13.788 13.789c2.663 2.663 6.857 3.018 9.93.841 3.905-2.767 4.381-8.383.997-11.768z" fill="#526b75"/></g></g></svg>