<?xml version="1.0" encoding="UTF-8"?>
<svg width="496px" height="512px" viewBox="0 0 496 512" version="1.1" xmlns="http://www.w3.org/2000/svg" xmlns:xlink="http://www.w3.org/1999/xlink">
    <title>logo</title>
    <g id="Page-1" stroke="none" stroke-width="1" fill="none" fill-rule="evenodd">
        <g id="logo" transform="translate(247.9071, 255.9934) scale(-1, 1) translate(-247.9071, -255.9934)" fill-rule="nonzero">
            <g id="Group" transform="translate(7.5003, 7.4928)">
                <path d="M299.579366,87.8660814 C297.769366,87.2480814 296.208366,89.2700814 297.268366,90.8620814 C304.514366,101.749081 308.681366,113.458081 311.661366,134.563081 C312.390366,139.729081 312.621366,144.450081 312.538366,148.692081 C312.483366,151.509081 304.028366,151.658081 302.288366,149.442081 C251.758366,85.1140814 168.544366,38.4850814 82.347366,27.3050814 C70.391366,25.7540814 79.415366,35.6870814 67.424366,35.5470814 C64.890366,35.5180814 63.473366,38.4570814 65.056366,40.4360814 C100.506366,84.7620814 95.955366,106.967081 98.247366,129.438081 C100.480366,151.331081 100.459366,165.148081 106.417366,193.627081 C111.865366,219.670081 119.793366,244.637081 129.602366,260.684081 C130.873366,262.764081 129.273366,265.416081 126.842366,265.240081 C119.920366,264.740081 100.126366,267.036081 89.565366,262.966081 C70.583366,255.650081 62.670366,245.146081 55.008366,237.637081 C53.740366,236.394081 51.613366,237.298081 51.6072685,239.073081 C51.332366,326.141081 103.143366,402.928081 177.565366,453.541081 C281.215366,524.031081 380.145366,488.920081 427.946366,440.086081 C432.560366,435.372081 525.094366,336.801081 454.080366,211.631081 C415.032366,142.804081 349.270366,106.009081 311.505366,89.5800814 C301.932366,85.4170814 304.663366,89.6030814 299.579366,87.8660814 Z" id="Path" fill="#E27C48"></path>
                <path d="M337.786366,179.350081 C337.736366,182.170081 334.156366,183.320081 332.416366,181.100081 C324.026366,170.420081 312.726366,159.470081 302.666366,149.850081 C302.676366,149.850081 302.676366,149.850081 302.676366,149.840081 C304.506366,151.490081 307.606366,150.310081 307.656366,147.690081 C308.053366,133.448081 304.177366,117.640081 298.196366,104.470081 C294.516366,96.2000814 290.336366,89.1800814 286.766366,83.8200814 C285.706366,82.2300814 287.266366,80.2000814 289.076366,80.8200814 C294.156366,82.5600814 301.936366,85.4200814 311.506366,89.5800814 C319.786366,102.380081 326.276366,117.420081 330.096366,132.140081 C332.156366,140.080081 333.706366,148.130081 335.086366,156.210081 C336.386366,163.910081 337.926366,171.520081 337.786366,179.350081 L337.786366,179.350081 Z" id="Path" fill="#E27C48"></path>
                <path d="M433.546366,433.760081 C430.586366,437.330081 428.536366,439.480081 427.946366,440.090081 C380.146366,488.920081 275.026366,529.640081 171.376366,459.150081 C96.956366,408.540081 47.866366,317.310081 48.146366,230.240081 C48.146366,228.460081 50.276366,227.560081 51.546366,228.800081 C59.206366,236.310081 73.126366,248.100081 92.106366,255.420081 C102.666366,259.490081 111.816366,261.020081 118.736366,261.520081 C121.166366,261.700081 122.766366,259.050081 121.496366,256.970081 C111.686366,240.920081 100.416366,218.620081 94.966366,192.580081 C89.016366,164.100081 94.186366,151.090081 91.946366,129.200081 C89.656366,106.730081 79.466366,73.9600814 44.016366,29.6400814 C42.436366,27.6600814 43.856366,24.7200814 46.386366,24.7498536 C58.376366,24.8900814 70.396366,25.7600814 82.346366,27.3100814 C100.656366,62.6700814 120.316366,111.670081 121.796366,126.150081 C122.896366,136.960081 122.546366,145.910081 122.246366,153.810081 C121.846366,164.050081 121.506366,172.900081 124.336366,186.440081 C128.056366,204.250081 135.716366,222.720081 147.086366,241.320081 C153.306366,251.490081 153.556366,264.280081 147.716366,274.680081 C141.896366,285.070081 130.876366,291.530081 118.966366,291.530081 C118.166366,291.530081 117.366366,291.500081 116.576366,291.450081 C107.209366,290.774081 97.786366,288.919081 88.470366,285.934081 C86.973366,285.454081 85.525366,286.818081 85.931366,288.337081 C101.356366,346.045081 138.647366,400.615081 188.247366,434.351081 C220.107366,456.011081 253.887366,467.001081 288.677366,467.001081 L288.687366,467.001081 C289.507366,467.001081 290.327366,466.991081 291.167366,466.981081 C334.366366,466.430081 399.406366,451.670081 433.546366,433.760081 Z" id="Path" fill="#DF6937"></path>
                <g transform="translate(180.7713, 201.5722)" id="Path">
                    <path d="M265.961096,77.8759308 L244.386096,38.9549308 C241.446096,33.6519308 235.517096,30.7389308 229.523096,31.6519308 L213.454096,34.1009308 C212.549096,34.2389308 211.636096,33.9489308 210.965096,33.3269308 C172.811096,-2.10106921 114.917096,-11.0210692 66.7520956,15.0059308 C65.9290956,15.4509308 64.9490956,15.4949308 64.0960956,15.1099308 L52.0440956,9.67893079 L45.8530956,11.2179308 C40.3940956,8.75893079 33.8820956,9.94993079 29.6460956,14.1839308 L9.6330956,36.2199308 C5.3990956,40.4549308 4.2060956,46.9689308 6.6670956,52.4269308 L18.2410956,74.0989308 C3.3500956,108.440931 -2.6649044,150.066931 16.8850956,185.334931 C27.8070956,205.037931 46.7310956,218.437931 64.7090956,229.332931 L67.6890956,246.516931 C68.4030956,252.425931 72.5790956,257.238931 78.3280956,258.779931 L97.1940956,266.120931 C98.4520956,266.457931 99.7240956,266.620931 100.980096,266.620931 C105.461096,266.620931 109.748096,264.537931 112.539096,260.821931 L125.816096,242.949931 C145.938096,242.777931 165.872096,240.114931 184.710096,229.672931 C192.478096,225.366931 201.448096,224.667931 207.901096,219.073931 C238.174096,192.831931 253.590096,153.785931 250.469096,114.794931 C250.405096,113.998931 250.656096,113.211931 251.176096,112.605931 L263.931096,97.7579308 C268.675096,92.2349308 269.491096,84.2449308 265.961096,77.8759308 L265.961096,77.8759308 Z" fill="#E3E0E4"></path>
                    <path d="M207.905096,219.077931 C201.455096,224.667931 194.325096,229.677931 186.555096,233.987931 C168.171096,244.174931 148.330096,249.230931 128.685096,249.626931 C127.763096,249.645931 126.901096,250.078931 126.348096,250.815931 L115.585096,265.156931 C112.795096,268.866931 108.505096,270.956931 104.025096,270.956931 C102.765096,270.956931 101.495096,270.786931 100.235096,270.456931 L74.2750956,263.496931 C68.5250956,261.956931 64.3550956,257.146931 63.6350956,251.236931 L61.4280956,232.947931 C61.3190956,232.043931 60.8010956,231.244931 60.0270956,230.763931 C42.5710956,219.912931 27.5560956,204.586931 16.8850956,185.336931 C-2.4379044,150.477931 -3.2969044,110.381931 11.0610956,76.2979308 C11.3840956,75.5299308 11.3800956,74.6649308 11.0380956,73.9059308 L1.2650956,52.2169308 C-1.1949044,46.7569308 0.00509560345,40.2469308 4.2350956,36.0069308 L30.1650956,10.0869308 C34.3950956,5.84948003 40.9050956,4.65693079 46.3650956,7.11693079 L52.0450956,9.67693079 C47.4950956,24.6169308 45.0550956,40.4769308 45.0550956,56.9069308 C45.0550956,146.476931 117.655096,219.076931 207.215096,219.076931 L207.905096,219.076931 L207.905096,219.077931 Z" fill="#D4CFD5"></path>
                    <path d="M146.412096,166.012931 C137.981096,150.802931 140.053096,134.613931 155.263096,126.182931 C157.012096,125.212931 158.542096,122.450931 160.373096,121.843931 C174.467096,117.167931 190.335096,123.019931 197.796096,136.480931 C202.235096,144.488931 202.813096,153.591931 200.146096,161.648931 C197.747096,168.894931 190.888096,173.935931 183.686096,177.927931 C168.477096,186.358931 154.843096,181.222931 146.412096,166.012931 L146.412096,166.012931 Z" fill="#91DAFA"></path>
                    <path d="M103.952096,64.5659308 C100.071096,57.5649308 100.772096,51.7659308 107.773096,47.8849308 C109.523096,46.9149308 110.890096,44.6029308 112.762096,44.4039308 C118.379096,43.8059308 124.069096,46.5419308 126.979096,51.7929308 C128.434096,54.4179308 128.988096,57.2999308 128.743096,60.0809308 C128.334096,64.7159308 124.744096,65.3749308 120.368096,67.7999308 C113.368096,71.6809308 107.833096,71.5679308 103.952096,64.5659308 L103.952096,64.5659308 Z" fill="#91DAFA"></path>
                    <path d="M128.725096,60.2379308 C128.275096,64.8179308 125.655096,69.0979308 121.335096,71.4979308 C114.325096,75.3779308 105.505096,72.8479308 101.625096,65.8479308 C97.7450956,58.8479308 100.275096,50.0279308 107.275096,46.1379308 C109.065096,45.1479308 110.975096,44.5779308 112.885096,44.3979308 C112.595096,47.2279308 113.145096,50.1679308 114.625096,52.8479308 C117.515096,58.0579308 123.145096,60.7979308 128.725096,60.2379308 L128.725096,60.2379308 Z" fill="#75CFF9"></path>
                    <path d="M56.0290956,158.863931 C51.3410956,150.405931 52.6580956,143.091931 61.1150956,138.403931 C62.6250956,137.566931 63.7100956,135.796931 65.3130956,135.439931 C72.6920956,133.797931 80.5720956,137.100931 84.4230956,144.048931 C87.6730956,149.912931 87.2010956,156.833931 83.7880956,162.088931 C82.2780956,164.413931 78.3680956,162.020931 75.7740956,163.458931 C67.3160956,168.147931 60.7170956,167.321931 56.0290956,158.863931 Z" fill="#91DAFA"></path>
                    <g transform="translate(51.5964, 121.8479)" fill="#75CFF9">
                        <path d="M32.1886972,40.24 C30.6786972,42.57 28.5886972,44.57 25.9986972,46 C17.5486972,50.69 6.88869716,47.64 2.19869716,39.18 C-2.49130284,30.72 0.568697163,20.06 9.02869716,15.38 C10.5386972,14.54 12.1186972,13.95 13.7186972,13.6 C18.9786972,23.11 25.1786972,32.03 32.1886972,40.24 L32.1886972,40.24 Z"></path>
                        <path d="M148.548697,39.8 C146.148697,47.05 141.128697,53.45 133.928697,57.44 C118.718697,65.87 99.5486972,60.37 91.1186972,45.16 C82.6886972,29.95 88.1886972,10.79 103.398697,2.36 C105.148697,1.39 106.948697,0.61 108.778697,0 C106.108697,8.06 106.678697,17.15 111.118697,25.16 C118.578697,38.62 134.458697,44.48 148.548697,39.8 L148.548697,39.8 Z"></path>
                    </g>
                </g>
                <path d="M38.445366,121.782081 C48.306366,136.211081 47.974366,154.509081 47.314366,162.073081 C47.149366,163.961081 45.313366,165.239081 43.494366,164.707081 C36.220366,162.581081 19.024366,156.247081 9.15236596,141.803081 C-0.708634045,127.374081 -0.376634045,109.076081 0.283365955,101.512081 C0.448365955,99.6240814 2.28436596,98.3460814 4.10336596,98.8780814 C11.377366,101.004081 28.573366,107.338081 38.445366,121.782081 Z" id="Path" fill="#F3D332"></path>
                <path d="M47.316366,162.070081 C47.146366,163.960081 45.316366,165.240081 43.496366,164.710081 C36.216366,162.580081 19.026366,156.250081 9.15636596,141.800081 C-0.713634045,127.370081 -0.373634045,109.080081 0.286365955,101.510081 C0.426365955,99.9300814 1.72636596,98.7900814 3.21636596,98.7600814 C4.44636596,105.360081 6.81636596,112.450081 11.156366,118.800081 C21.026366,133.250081 38.216366,139.580081 45.496366,141.710081 C45.786366,141.800081 46.086366,141.830081 46.376366,141.830081 C47.956366,150.230081 47.686366,157.840081 47.316366,162.070081 Z" id="Path" fill="#ECC52E"></path>
                <path d="M234.483366,6.69508143 C247.909366,15.3410814 253.471366,31.8420814 255.266366,38.6730814 C255.712366,40.3690814 254.609366,42.0810814 252.881366,42.3770814 C245.920366,43.5690814 228.596366,45.3320814 215.170366,36.6860814 C201.744366,28.0400814 196.182366,11.5390814 194.387366,4.70808143 C193.941366,3.01208143 195.044366,1.30008143 196.772366,1.00408143 C203.734366,-0.187918571 221.057366,-1.95091857 234.483366,6.69508143 Z" id="Path" fill="#F3D332"></path>
                <path d="M252.886366,42.3800814 C245.916366,43.5700814 228.596366,45.3300814 215.166366,36.6900814 C201.746366,28.0400814 196.186366,11.5400814 194.386366,4.71008143 C194.096366,3.59008143 194.476366,2.46008143 195.266366,1.74008143 C198.566366,7.88008143 203.356366,14.3000814 210.166366,18.6900814 C223.596366,27.3300814 240.916366,25.5700814 247.886366,24.3800814 C248.466366,24.2800814 248.976366,24.0200814 249.386366,23.6500814 C252.596366,29.6100814 254.386366,35.3100814 255.266366,38.6700814 C255.716366,40.3700814 254.606366,42.0800814 252.886366,42.3800814 Z" id="Path" fill="#ECC52E"></path>
            </g>
            <g id="Group" transform="translate(-0, 0)" fill="#000000">
                <path d="M478.044623,375.632839 C474.180623,374.137839 469.838623,376.055839 468.342623,379.916839 C453.546623,418.105839 431.038623,441.362839 430.087623,442.334839 C386.130623,487.241839 284.077623,529.123839 183.092623,460.444839 C150.682623,438.403839 122.414623,407.838839 101.343623,372.053839 C99.2416228,368.485839 94.6466228,367.295839 91.0746228,369.396839 C87.5056228,371.498839 86.3156228,376.095839 88.4176228,379.665839 C110.605623,417.347839 140.426623,449.569839 174.656623,472.848839 C212.692623,498.716839 254.191623,511.986839 296.289623,511.986839 C307.275623,511.986839 318.311623,511.081839 329.327623,509.260839 C371.968623,502.212839 412.600623,481.643839 440.806623,452.828839 C441.845623,451.767839 466.433623,426.366839 482.328623,385.336839 C483.826623,381.472839 481.908623,377.128839 478.044623,375.632839 L478.044623,375.632839 Z" id="Path"></path>
                <path d="M63.4566228,250.269839 C72.0656228,257.254839 83.3386228,264.681839 96.9086228,269.911839 C106.460623,273.592839 116.144623,275.808839 125.691623,276.497839 C129.644623,276.782839 133.348623,274.865839 135.401623,271.494839 C137.458623,268.117839 137.454623,263.923839 135.391623,260.549839 C122.671623,239.742839 114.065623,218.878839 109.809623,198.536839 C106.412623,182.291839 106.824623,171.670839 107.260623,160.426839 C107.551623,152.923839 107.852623,145.163839 106.909623,135.928839 C103.905623,106.486839 89.2326228,74.251839 63.2666228,40.006839 C113.505623,42.262839 166.052623,57.740839 212.283623,84.029839 C215.882623,86.075839 220.462623,84.818839 222.510623,81.217839 C224.558623,77.616839 223.298623,73.037839 219.697623,70.990839 C168.385623,41.810839 109.530623,25.385839 53.9746228,24.7392614 C49.8536228,24.697839 46.2196228,26.948839 44.4226228,30.630839 C42.6216228,34.320839 43.0966228,38.605839 45.6606228,41.812839 C73.4746228,76.589839 89.0616228,108.767839 91.9886228,137.451839 C92.8236228,145.636839 92.5546228,152.538839 92.2716228,159.845839 C91.8196228,171.502839 91.3516228,183.555839 95.1276228,201.608839 C99.1846228,221.003839 106.833623,240.736839 117.898623,260.381839 C112.712623,259.409839 107.494623,257.916839 102.301623,255.915839 C85.2406228,249.340839 72.2156228,238.705839 64.2936228,230.941839 C61.5616228,228.261839 57.5146228,227.484839 53.9856228,228.960839 C50.4486228,230.439839 48.1556228,233.873839 48.1426228,237.710839 C48.0296228,273.631839 56.2016228,311.457839 71.7776228,347.096839 C73.0086228,349.914839 75.7626228,351.595839 78.6536228,351.595839 C79.6566228,351.595839 80.6746228,351.393839 81.6526228,350.966839 C85.4486228,349.307839 87.1806228,344.885839 85.5216228,341.090839 C72.5826228,311.473839 65.0386228,280.330839 63.4566228,250.269839 L63.4566228,250.269839 Z" id="Path"></path>
                <path d="M468.104623,215.424839 C418.201623,127.464839 326.052623,90.464839 298.998623,81.218839 C295.139623,79.902839 290.882623,81.184839 288.398623,84.411839 C285.915623,87.636839 285.763623,92.080839 288.020623,95.468839 C295.039623,106.014839 303.951623,122.519839 306.769623,141.501839 C290.635623,122.892839 271.736623,105.813839 250.431623,90.609839 C247.060623,88.202839 242.375623,88.985839 239.970623,92.357839 C237.564623,95.729839 238.346623,100.412839 241.718623,102.818839 C265.917623,120.089839 286.835623,139.856839 303.890623,161.567839 C306.676623,165.114839 311.241623,166.482839 315.517623,165.049839 C319.768623,163.626839 322.571623,159.811839 322.659623,155.332839 C322.757623,150.318839 322.437623,145.162839 321.710623,140.007839 C319.607623,125.124839 314.298623,111.680839 308.620623,100.839839 C344.098623,115.221839 414.487623,151.317839 455.058623,222.827839 C478.129623,263.492839 485.745623,305.445839 477.692623,347.522839 C476.914623,351.590839 479.580623,355.520839 483.648623,356.298839 C484.125623,356.389839 484.599623,356.433839 485.067623,356.433839 C488.593623,356.433839 491.737623,353.933839 492.424623,350.341839 C501.164623,304.666839 492.982623,259.274839 468.104623,215.424839 L468.104623,215.424839 Z" id="Path"></path>
                <path d="M339.627623,326.711839 C320.824623,337.133839 314.007623,360.909839 324.429623,379.711839 C329.478623,388.819839 337.771623,395.416839 347.782623,398.286839 C351.346623,399.308839 354.976623,399.814839 358.585623,399.814839 C365.110623,399.814839 371.565623,398.159839 377.430623,394.908839 C386.538623,389.860839 393.136623,381.566839 396.006623,371.555839 C398.876623,361.545839 397.677623,351.015839 392.628623,341.908839 C387.579623,332.800839 379.286623,326.202839 369.275623,323.332839 C359.265623,320.463839 348.734623,321.662839 339.627623,326.711839 L339.627623,326.711839 Z M379.508623,349.181839 C382.614623,354.785839 383.352623,361.263839 381.586623,367.422839 C379.820623,373.581839 375.761623,378.684839 370.157623,381.790839 C364.552623,384.896839 358.073623,385.633839 351.916623,383.869839 C345.757623,382.103839 340.654623,378.044839 337.548623,372.440839 C331.136623,360.871839 335.330623,346.243839 346.899623,339.830839 C352.503623,336.724839 358.982623,335.985839 365.140623,337.752839 C371.299623,339.518839 376.402623,343.577839 379.508623,349.181839 Z" id="Shape"></path>
                <path d="M291.912623,248.647839 C281.305623,254.526839 277.459623,267.939839 283.339623,278.547839 C287.351623,285.784839 294.870623,289.874839 302.612623,289.874839 C306.216623,289.874839 309.869623,288.988839 313.238623,287.120839 C323.845623,281.241839 327.691623,267.828839 321.811623,257.220839 C315.931623,246.614839 302.518623,242.770839 291.912623,248.647839 Z M305.966623,274.001839 C302.595623,275.870839 298.327623,274.647839 296.457623,271.274839 C294.587623,267.900839 295.811623,263.635839 299.183623,261.765839 C302.555623,259.897839 306.823623,261.118839 308.692623,264.492839 C310.562623,267.866839 309.338623,272.132839 305.966623,274.001839 Z" id="Shape"></path>
                <path d="M233.340623,354.709839 C231.498623,361.130839 232.268623,367.885839 235.507623,373.727839 C238.745623,379.570839 244.065623,383.802839 250.486623,385.643839 C252.773623,386.298839 255.101623,386.623839 257.416623,386.623839 C261.603623,386.623839 265.743623,385.561839 269.506623,383.476839 C281.566623,376.790839 285.939623,361.538839 279.254623,349.477839 C276.015623,343.634839 270.695623,339.403839 264.274623,337.561839 C257.851623,335.719839 251.097623,336.489839 245.256623,339.728839 C239.414623,342.967839 235.181623,348.287839 233.340623,354.709839 L233.340623,354.709839 Z M247.759623,358.843839 C248.495623,356.273839 250.190623,354.144839 252.529623,352.848839 C254.034623,352.013839 255.691623,351.588839 257.366623,351.588839 C258.293623,351.588839 259.224623,351.718839 260.139623,351.981839 C262.709623,352.718839 264.839623,354.412839 266.135623,356.750839 C268.810623,361.577839 267.060623,367.682839 262.234623,370.357839 C259.897623,371.653839 257.193623,371.961839 254.622623,371.224839 C252.052623,370.487839 249.923623,368.793839 248.627623,366.455839 C247.331623,364.116839 247.022623,361.413839 247.759623,358.843839 L247.759623,358.843839 Z" id="Shape"></path>
                <path d="M454.232623,286.940839 L432.658623,248.020839 C429.732623,242.742839 423.757623,239.807839 417.795623,240.716839 L409.515623,241.978839 C390.105623,221.871839 364.395623,208.251839 336.667623,203.482839 C307.138623,198.403839 276.425623,203.622839 250.173623,218.173839 C248.542623,219.077839 246.929623,220.029839 245.332623,221.003839 L234.640623,216.185839 C229.181623,213.726839 222.669623,214.917839 218.433623,219.151839 L192.507623,245.077839 C188.273623,249.312839 187.080623,255.826839 189.541623,261.284839 L195.771623,275.111839 C178.303623,310.346839 177.283623,350.878839 193.084623,386.905839 C194.317623,389.718839 197.069623,391.394839 199.956623,391.394839 C200.962623,391.394839 201.984623,391.190839 202.965623,390.760839 C206.758623,389.096839 208.485623,384.673839 206.820623,380.879839 C194.445623,352.665839 193.724623,321.329839 204.405623,292.860839 C205.797623,294.173839 207.638623,294.919839 209.547623,294.919839 C210.577623,294.919839 211.624623,294.706839 212.624623,294.255839 C216.400623,292.553839 218.083623,288.112839 216.381623,284.336839 L203.359623,255.438839 L228.794623,230.003839 L257.692623,243.025839 C261.468623,244.726839 265.910623,243.045839 267.611623,239.268839 C269.313623,235.492839 267.631623,231.051839 263.854623,229.349839 L262.410623,228.698839 C305.004623,207.617839 355.293623,214.238839 390.744623,244.836839 L385.454623,245.642839 C381.359623,246.266839 378.546623,250.091839 379.170623,254.186839 C379.793623,258.281839 383.620623,261.094839 387.714623,260.471839 L419.707623,255.596839 L441.112623,294.210839 C441.615623,295.119839 441.499623,296.259839 440.822623,297.046839 L420.865623,320.277839 C418.167623,323.419839 418.525623,328.154839 421.668623,330.853839 C423.083623,332.069839 424.821623,332.664839 426.551623,332.664839 C428.371623,332.664839 430.178623,332.002839 431.593623,330.715839 C432.756623,373.967839 409.836623,415.063839 371.187623,436.487839 C355.729623,445.055839 338.707623,449.963839 321.291623,450.993839 L322.039623,449.997839 C324.526623,446.684839 323.857623,441.983839 320.545623,439.496839 C317.232623,437.008839 312.530623,437.678839 310.045623,440.990839 C305.587623,446.926839 296.555623,458.956839 292.064623,464.937839 L266.761623,458.157839 L263.161623,428.428839 C262.664623,424.316839 258.922623,421.385839 254.814623,421.884839 C250.702623,422.382839 247.772623,426.119839 248.270623,430.231839 L248.355623,430.935839 C239.286623,424.791839 231.161623,417.419839 224.100623,408.906839 C221.455623,405.718839 216.726623,405.279839 213.539623,407.922839 C210.351623,410.567839 209.910623,415.295839 212.555623,418.483839 C223.216623,431.334839 236.019623,441.879839 250.649623,449.882839 L251.910623,460.296839 C252.624623,466.205839 256.800623,471.018839 262.549623,472.559839 L288.510623,479.515839 C292.825623,480.950839 300.232623,479.138839 303.855623,474.216839 L309.920623,466.138839 C311.420623,466.189839 312.918623,466.218839 314.415623,466.218839 C336.758623,466.218839 358.736623,460.539839 378.458623,449.607839 C426.623623,422.909839 453.133623,369.124839 445.264623,314.896839 L452.202623,306.820839 C456.946623,301.299839 457.762623,293.309839 454.232623,286.940839 L454.232623,286.940839 Z" id="Path"></path>
                <path d="M54.3996228,180.582839 C55.8986228,180.582839 57.3756228,180.133839 58.6316228,179.274839 C60.3086228,178.128839 61.4486228,176.350839 61.7916228,174.348839 C61.9876228,173.199839 66.4426228,145.973839 52.1376228,125.042839 C37.8316228,104.111839 10.8466228,98.373839 9.70562277,98.139839 C7.71862277,97.731839 5.64462277,98.148839 3.96862277,99.294839 C2.29062277,100.440839 1.15062277,102.218839 0.807622767,104.220839 C0.611622767,105.369839 -3.84437723,132.595839 10.4606228,153.526839 C24.7676228,174.457839 51.7526228,180.195839 52.8946228,180.429839 C53.3926228,180.532839 53.8976228,180.582839 54.3996228,180.582839 Z M22.8446228,145.063839 C16.2536228,135.420839 14.9856228,123.402839 15.0106228,115.424839 C22.4326228,118.278839 33.1216228,123.804839 39.7526228,133.506839 C46.3356228,143.137839 47.6086228,155.137839 47.5878763,163.115839 C40.1426228,160.237839 29.4266228,154.693839 22.8446228,145.063839 L22.8446228,145.063839 Z" id="Shape"></path>
                <path d="M218.610623,50.483839 C228.335623,56.746839 239.560623,58.366839 248.575623,58.366839 C257.845623,58.366839 264.777623,56.653839 265.331623,56.512839 C269.142623,55.541839 271.555623,51.793839 270.862623,47.923839 C270.663623,46.813839 265.768623,20.585839 246.044623,7.88283901 C226.321623,-4.81916099 200.417623,1.57583901 199.324623,1.85483901 C195.514623,2.82583901 193.100623,6.57383901 193.793623,10.443839 C193.992623,11.553839 198.885623,37.781839 218.610623,50.483839 Z M237.922623,20.493839 C246.667623,26.125839 251.526623,36.185839 253.974623,43.108839 C246.638623,43.736839 235.429623,43.473839 226.731623,37.872839 C217.978623,32.235839 213.119623,22.163839 210.673623,15.239839 C217.996623,14.599839 229.173623,14.859839 237.922623,20.493839 L237.922623,20.493839 Z" id="Shape"></path>
                <circle id="Oval" cx="249.386623" cy="296.846839" r="7.496"></circle>
                <circle id="Oval" cx="379.096623" cy="277.596839" r="7.496"></circle>
                <circle id="Oval" cx="304.171623" cy="409.062839" r="7.496"></circle>
            </g>
        </g>
    </g>
</svg>
